<svg xmlns="http://www.w3.org/2000/svg" width="67" height="45.185" viewBox="0 0 67 45.185">
  <defs>
    <style>
      .cls-1 {
        fill: #1a163d;
      }
    </style>
  </defs>
  <g id="Group_546" data-name="Group 546" transform="translate(-6.991 -20.995)">
    <path id="Path_243" data-name="Path 243" class="cls-1" d="M49.251,21.007a1.562,1.562,0,0,1,.8.341L73.421,40.82a1.558,1.558,0,0,1,.217,2.193,1.591,1.591,0,0,1-.217.217L50.054,62.7A1.558,1.558,0,0,1,47.5,61.511V52.967c-4.13-.041-23.736.421-37.923,12.828a1.558,1.558,0,0,1-2.507-1.655C13.574,44.091,33.418,35.276,47.5,31.522V22.564a1.557,1.557,0,0,1,1.545-1.569A1.533,1.533,0,0,1,49.251,21.007Zm1.363,4.868V32.69a1.559,1.559,0,0,1-1.168,1.51C37.112,37.322,20.027,44.582,12.277,59.977,28.3,49.184,47.679,49.758,49.128,49.826a1.559,1.559,0,0,1,1.485,1.558v6.767L69.989,42.037Z" transform="translate(0)"/>
  </g>
</svg>
