<svg xmlns="http://www.w3.org/2000/svg" width="71.998" height="70.42" viewBox="0 0 71.998 70.42">
  <defs>
    <style>
      .cls-1 {
        fill: #1a163d;
      }
    </style>
  </defs>
  <g id="Group_545" data-name="Group 545" transform="translate(-4.995 -5.988)">
    <path id="Path_241" data-name="Path 241" class="cls-1" d="M45.978,31.093A16.084,16.084,0,1,0,62.061,47.176,16.1,16.1,0,0,0,45.978,31.093Zm0,29.1A13.02,13.02,0,1,1,59,47.178,13.034,13.034,0,0,1,45.978,60.2Z" transform="translate(-4.981 -5.022)"/>
    <path id="Path_242" data-name="Path 242" class="cls-1" d="M73.882,42.355l-5.225-1.193-1.017-.232A26.7,26.7,0,0,0,67,36.213a23.871,23.871,0,0,0-1.083-3.506,1.64,1.64,0,0,1,.428-1.673L70.532,27.7A3.965,3.965,0,0,0,71.99,24.84a4.447,4.447,0,0,0-.981-3.056l-3.483-4.368a4.452,4.452,0,0,0-3.434-1.69,3.865,3.865,0,0,0-2.44.843l-4.189,3.342a1.709,1.709,0,0,1-1.725.049,23.828,23.828,0,0,0-3.173-1.838,24.271,24.271,0,0,0-3.413-1.33,1.643,1.643,0,0,1-1.041-1.382V10.052a4.2,4.2,0,0,0-4.324-4.064H38.2a4.205,4.205,0,0,0-4.325,4.064v5.359a1.641,1.641,0,0,1-1.041,1.382,23.9,23.9,0,0,0-6.589,3.171,1.707,1.707,0,0,1-1.725-.047l-4.19-3.342a3.872,3.872,0,0,0-2.44-.842,4.449,4.449,0,0,0-3.434,1.69l-3.483,4.368a4.456,4.456,0,0,0-.981,3.057A3.964,3.964,0,0,0,11.454,27.7l4.185,3.337a1.635,1.635,0,0,1,.43,1.671,23.688,23.688,0,0,0-1.082,3.5,26.812,26.812,0,0,0-.636,4.721l-1.016.232L8.11,42.36A3.919,3.919,0,0,0,5.555,44.3a4.457,4.457,0,0,0-.445,3.181L6.354,52.93a4.294,4.294,0,0,0,4.072,3.408,3.9,3.9,0,0,0,.85-.094l5.217-1.192a1.7,1.7,0,0,1,1.582.707,24.185,24.185,0,0,0,2.065,3.03,24.476,24.476,0,0,0,2.5,2.683,1.638,1.638,0,0,1,.338,1.694L20.652,68a4.209,4.209,0,0,0,2.134,5.539l5.034,2.423a4.567,4.567,0,0,0,1.964.45,4.035,4.035,0,0,0,3.7-2.238L35.8,69.341a1.6,1.6,0,0,1,1.53-.789,24.276,24.276,0,0,0,7.321,0,1.611,1.611,0,0,1,1.53.789l2.326,4.828a4.029,4.029,0,0,0,3.693,2.236,4.577,4.577,0,0,0,1.966-.45L59.2,73.53a4.209,4.209,0,0,0,2.134-5.54l-2.326-4.826a1.638,1.638,0,0,1,.338-1.7,24.129,24.129,0,0,0,4.562-5.713,1.7,1.7,0,0,1,1.583-.708l5.217,1.19a3.813,3.813,0,0,0,.85.1,4.3,4.3,0,0,0,4.073-3.409l1.242-5.447A4.2,4.2,0,0,0,73.882,42.355Zm.012,4.438L72.652,52.24A1.156,1.156,0,0,1,71.4,53.248l-5.217-1.189a4.1,4.1,0,0,0-.908-.1,4.709,4.709,0,0,0-4.035,2.309,21.048,21.048,0,0,1-1.778,2.605,21.421,21.421,0,0,1-2.146,2.31,4.7,4.7,0,0,0-1.057,5.31l2.326,4.827a1.171,1.171,0,0,1-.7,1.45l-5.033,2.425a1.465,1.465,0,0,1-.636.149,1.011,1.011,0,0,1-.934-.5L48.95,68.013a4.7,4.7,0,0,0-4.128-2.536,4.082,4.082,0,0,0-.682.057A20.818,20.818,0,0,1,41,65.766a21.063,21.063,0,0,1-3.137-.231,4.024,4.024,0,0,0-.683-.057,4.7,4.7,0,0,0-4.128,2.536l-2.325,4.829a1.014,1.014,0,0,1-.935.5,1.461,1.461,0,0,1-.636-.15l-5.033-2.422a1.172,1.172,0,0,1-.7-1.45l2.326-4.83a4.706,4.706,0,0,0-1.058-5.309,21.123,21.123,0,0,1-3.925-4.913,4.7,4.7,0,0,0-4.035-2.31,4.062,4.062,0,0,0-.909.1L10.6,53.253a1.157,1.157,0,0,1-1.254-1.01L8.1,46.8a1.417,1.417,0,0,1,.128-1,.9.9,0,0,1,.566-.453L15.562,43.8c.814-.188,1.828-.421,1.828-1.646a23.771,23.771,0,0,1,.586-5.261,20.936,20.936,0,0,1,.923-3.007,4.7,4.7,0,0,0-1.349-5.243L13.366,25.3a.906.906,0,0,1-.311-.653,1.416,1.416,0,0,1,.318-.955l3.483-4.369a1.2,1.2,0,0,1,1.567-.362l4.19,3.342a4.673,4.673,0,0,0,5.409.15,20.9,20.9,0,0,1,5.662-2.725,4.7,4.7,0,0,0,3.255-4.325V10.049a1.17,1.17,0,0,1,1.262-1h5.586a1.169,1.169,0,0,1,1.261,1v5.359A4.7,4.7,0,0,0,48.3,19.732a21.591,21.591,0,0,1,2.933,1.148,20.817,20.817,0,0,1,2.725,1.575,4.671,4.671,0,0,0,5.41-.15l4.19-3.344a1.2,1.2,0,0,1,1.568.364l3.484,4.366a1.422,1.422,0,0,1,.317.954.9.9,0,0,1-.312.654l-4.184,3.338a4.7,4.7,0,0,0-1.349,5.242,20.782,20.782,0,0,1,.926,3.01,23.849,23.849,0,0,1,.586,5.265c0,1.222,1.016,1.454,1.83,1.642l6.765,1.545A1.167,1.167,0,0,1,73.894,46.793Z"/>
  </g>
</svg>
