<svg xmlns="http://www.w3.org/2000/svg" width="62.442" height="62.442" viewBox="0 0 62.442 62.442">
  <defs>
    <style>
      .cls-1 {
        fill: #1a163d;
      }
    </style>
  </defs>
  <path id="Path_265" data-name="Path 265" class="cls-1" d="M36.221,67.442A31.221,31.221,0,1,0,5,36.221,31.221,31.221,0,0,0,36.221,67.442Zm0-2.657A28.4,28.4,0,0,1,19.57,59.408a1.293,1.293,0,0,0,.042-.326,16.61,16.61,0,0,1,33.212,0,1.293,1.293,0,0,0,.042.326A28.4,28.4,0,0,1,36.221,64.785Zm-8.034-33a8.041,8.041,0,1,1,8.048,8.034h-.014A8.048,8.048,0,0,1,28.187,31.781ZM36.221,7.657A28.55,28.55,0,0,1,55.4,57.368,19.307,19.307,0,0,0,42.063,40.717a10.691,10.691,0,1,0-11.684,0A19.307,19.307,0,0,0,17.037,57.368,28.55,28.55,0,0,1,36.221,7.657Z" transform="translate(-5 -5)"/>
</svg>
